<?xml version="1.0" encoding="UTF-8" standalone="no"?>
<svg width="200px" height="38px" viewBox="0 0 200 38" version="1.1" xmlns="http://www.w3.org/2000/svg" xmlns:xlink="http://www.w3.org/1999/xlink">
    <!-- Generator: Sketch 44 (41411) - http://www.bohemiancoding.com/sketch -->
    <title>Octopus Logo - White</title>
    <desc>Created with Sketch.</desc>
    <defs></defs>
    <g id="Welcome" stroke="none" stroke-width="1" fill="none" fill-rule="evenodd">
        <g id="01-Homepage---Desktop-HD" transform="translate(-135.000000, -16.000000)" fill="#FFFFFF">
            <g id="Header" transform="translate(135.000000, 16.000000)">
                <g id="Octopus-Logo---White">
                    <g id="Logo">
                        <path d="M20.8375994,20.4678236 C20.8375994,26.0519161 16.7355025,30.5787419 10.3809111,30.5787419 C4.60592914,30.5787419 0.13637021,26.1888648 0.13637021,20.6047722 C0.13637021,14.7314534 4.7120752,10.6303688 10.4872017,10.6303688 C16.2623283,10.6303688 20.8375994,14.883731 20.8375994,20.4678236 Z M10.4870571,26.8150398 C13.9156905,26.8150398 16.3587852,24.0345625 16.3587852,20.6046276 C16.3587852,17.1746927 14.1687636,14.3942155 10.4870571,14.3942155 C6.87780188,14.3942155 4.61532899,17.1746927 4.61532899,20.6046276 C4.61532899,24.0345625 7.03441793,26.8150398 10.4870571,26.8150398 Z" id="Shape" fill-rule="nonzero"></path>
                        <path d="M71.017932,20.4678236 C71.017932,26.0519161 66.9158351,30.5787419 60.5612437,30.5787419 C54.7861171,30.5787419 50.3167028,26.1888648 50.3167028,20.6047722 C50.3167028,14.7314534 54.8925524,10.6303688 60.6675343,10.6303688 C66.4426609,10.6303688 71.017932,14.883731 71.017932,20.4678236 Z M60.6673897,26.8150398 C64.0960231,26.8150398 66.5391179,24.0345625 66.5391179,20.6046276 C66.5391179,17.1746927 64.3490962,14.3942155 60.6673897,14.3942155 C57.0581345,14.3942155 54.7956616,17.1746927 54.7956616,20.6046276 C54.7956616,24.0345625 57.2148952,26.8150398 60.6673897,26.8150398 Z" id="Shape" fill-rule="nonzero"></path>
                        <path d="M93.8513377,22.4562545 C93.8513377,22.4562545 93.8522054,14.8140275 93.8514823,12.8375994 C94.2138829,10.072162 98.1106291,11.5557484 98.1106291,11.5557484 L98.1106291,21.8656544 L98.1106291,21.8618944 C98.1106291,25.0788142 100.312364,26.6507592 103.0282,26.6507592 C105.744035,26.6507592 107.94577,25.1330441 107.94577,21.8618944 C107.94577,21.8618944 107.958062,14.8199566 107.957339,12.8435286 C108.31974,10.0780911 112.216486,11.5616775 112.216486,11.5616775 L112.216486,18.1903109 C112.770788,26.3606652 120.584816,26.9707881 120.584816,26.9707881 C128.365004,28.0480116 127.68055,24.8533623 127.68055,24.8533623 C127.479248,23.2455531 126.280116,22.8809834 124.209978,22.6156182 C122.924657,22.4509038 121.808821,22.3382502 121.808821,22.3382502 C113.469125,21.8105568 114.289516,16.3096168 114.289516,16.3096168 C114.395083,11.6555315 119.374837,10.9473608 119.374837,10.9473608 C123.773825,10.1639913 126.880983,10.9328995 126.880983,10.9328995 C133.727693,12.3573391 130.356471,15.6021692 129.790745,15.7866956 C129.790745,15.7866956 127.967317,14.1168474 123.702097,13.8769342 C118.448301,13.5420101 118.540998,16.0221258 118.540998,16.0221258 C118.36992,17.8309472 120.686623,18.1619667 120.686623,18.1619667 L126.317281,18.9501085 C132.968474,19.877368 132.158062,24.5960954 132.158062,24.5960954 C131.721186,30.4973247 124.689226,30.540564 124.689226,30.540564 C115.072307,31.0989154 111.451916,26.1051338 111.451916,26.1051338 C110.104121,28.7868402 107.41316,30.5788865 102.941287,30.5788865 C97.6104121,30.5788865 93.8513377,27.5898771 93.8513377,22.2273319" id="Shape" fill-rule="nonzero"></path>
                        <path d="M31.3530007,10.9472162 C23.661316,11.4963124 21.9062907,18.6445409 22.0935647,20.7224873 C21.9868402,23.8621837 24.1830803,30.5787419 32.6791034,30.5825018 C33.7982646,30.5619667 34.8235719,30.4611714 35.7595083,30.288214 L35.7590745,26.4782357 C34.9447578,26.6215474 33.9618221,26.7119306 32.775705,26.7433116 C28.810846,26.8428055 26.5571945,23.5890094 26.5725235,20.7214751 C26.5725235,17.3958062 29.2928416,14.6650759 32.775705,14.6996385 L39.6477223,14.6980477 L39.6646421,24.1070137 C39.6646421,24.1070137 39.1686189,32.0788142 49.2452639,30.4050615 L49.2452639,26.608966 C43.6577007,27.812726 43.9595083,24.2967462 43.9595083,24.2967462 L43.9595083,14.7048445 L49.2452639,14.7048445 L49.2452639,10.9411424 L43.9595083,10.9411424 L43.9595083,6.50036153 L39.6646421,6.50036153 L39.6646421,10.9411424 L31.3530007,10.9472162 Z" id="Shape" fill-rule="nonzero"></path>
                        <path d="M76.5460593,36.29718 C76.1836587,39.0626175 72.2869125,37.5790311 72.2869125,37.5790311 L72.2869125,20.6047722 C72.5333333,15.1894432 75.7729573,10.7787419 82.4436732,10.6303688 C88.3331887,10.4993492 92.562979,14.8838756 92.6,20.4678236 C92.6393348,26.3848156 88.4903832,30.7835141 82.3597975,30.5237889 C80.1741142,30.4028923 78.0393348,29.5422993 76.5641359,27.6475777 C76.5642805,27.6475777 76.5453362,34.3208966 76.5460593,36.29718 Z M82.3330441,26.8338395 C85.727115,26.8338395 88.1456255,24.0533623 88.1456255,20.6234273 C88.1456255,17.1934924 85.977585,14.4130152 82.3330441,14.4130152 C78.7602314,14.4130152 76.5204628,17.1934924 76.5204628,20.6234273 C76.5204628,24.0533623 78.9152567,26.8338395 82.3330441,26.8338395 Z" id="Shape" fill-rule="nonzero"></path>
                        <path d="M182.516269,13.718872 C180.744035,11.8806941 178.306435,10.868402 175.652495,10.868402 C172.174114,10.868402 169.369197,12.5822126 167.861461,15.5972523 L167.861461,0.0449746927 L166.732466,0.0449746927 L166.732466,20.4717281 L166.732466,20.5927693 C166.732466,26.3182936 170.400434,30.316992 175.65235,30.316992 C178.306291,30.316992 180.74389,29.3046999 182.516124,27.4665221 C184.257411,25.6605929 185.216341,23.2193782 185.216341,20.5927693 C185.216341,17.9661605 184.257556,15.5249458 182.516269,13.718872 Z M184.084888,20.5927693 C184.084888,25.4623283 180.380911,29.2767896 175.652495,29.2767896 C171.065365,29.2767896 167.86175,25.7058568 167.86175,20.5927693 C167.86175,15.4796819 171.065365,11.9086045 175.652495,11.9086045 C180.380911,11.9086045 184.084888,15.7230658 184.084888,20.5927693 Z" id="Shape" fill-rule="nonzero"></path>
                        <rect id="Rectangle-path" fill-rule="nonzero" x="138.289371" y="0.0413593637" width="1.12219812" height="29.8592914"></rect>
                        <path d="M193.8765,19.6887925 C191.332899,18.8595806 188.930441,18.0765004 188.930441,15.7346349 C188.930441,13.2047722 191.246132,11.881128 193.533767,11.881128 C195.437889,11.881128 197.013738,12.468402 198.351265,13.6763557 L198.457122,13.771945 L199.199711,12.9722343 L199.081996,12.8744758 C197.807954,11.8189443 196.25423,10.842227 193.533912,10.842227 C190.162834,10.842227 187.808532,12.8540853 187.808532,15.7346349 C187.808532,18.854953 190.695879,19.7930586 193.488214,20.7005061 C196.200145,21.5816341 198.761822,22.4140275 198.761822,25.105423 C198.761822,27.6999277 196.273174,29.25047 193.866956,29.25047 C191.5047,29.25047 189.862907,28.5610991 188.01128,26.791757 L187.912798,26.6976139 L187.120029,27.4339841 L187.226175,27.5399855 C189.076211,29.3901663 191.248445,30.2895155 193.867101,30.2895155 C197.24107,30.2895155 199.88402,28.0124367 199.88402,25.105423 C199.883876,21.6471439 196.692263,20.6066522 193.8765,19.6887925 Z" id="Shape" fill-rule="nonzero"></path>
                        <path d="M153.471294,10.841504 C150.817209,10.841504 148.379754,11.8537961 146.60752,13.691974 C144.866233,15.4980477 143.907303,17.9392625 143.907303,20.5658713 C143.907303,23.1923355 144.866233,25.6335503 146.60752,27.439624 C148.379754,29.2778019 150.817354,30.290094 153.471294,30.290094 C156.952567,30.290094 159.75893,28.5771511 161.266956,25.562979 L161.261894,29.9012292 L162.390889,29.9012292 L162.391179,20.6864787 L162.392191,20.6354302 C162.392769,20.6124367 162.393492,20.5892986 162.393492,20.5658713 C162.393637,14.8402025 158.724657,10.841504 153.471294,10.841504 Z M161.262039,20.5658713 C161.262039,25.6788142 158.058424,29.2498915 153.471294,29.2498915 C148.742733,29.2498915 145.038756,25.4354302 145.038756,20.5658713 C145.038756,15.6963124 148.742733,11.881851 153.471294,11.881851 C158.058424,11.881851 161.262039,15.4529284 161.262039,20.5658713 Z" id="Shape" fill-rule="nonzero"></path>
                    </g>
                </g>
            </g>
        </g>
    </g>
</svg>